<svg xmlns="http://www.w3.org/2000/svg" width="308" height="175.542" viewBox="0 0 308 175.542"><g transform="translate(-13 138.715)"><path d="M10,0H298a10,10,0,0,1,10,10V174a0,0,0,0,1,0,0H0a0,0,0,0,1,0,0V10A10,10,0,0,1,10,0Z" transform="translate(13 -138.714)" fill="#fff" opacity="0.896"/><g transform="translate(73 -430.097)"><path d="M26.331,0H149.211a26.331,26.331,0,0,1,26.331,26.331V149.211a26.331,26.331,0,0,1-26.331,26.331H26.331A26.331,26.331,0,0,1,0,149.211V26.331A26.331,26.331,0,0,1,26.331,0Z" transform="translate(6 291.382)" fill="none"/><g transform="translate(52.08 335.267)"><path d="M43.885,0A43.885,43.885,0,1,1,0,43.885,43.885,43.885,0,0,1,43.885,0Z" fill="none" stroke="#3b7bf6" stroke-linecap="round" stroke-width="3"/><path d="M5.6,23.263,18.281,35.944,47.734,6.9" transform="translate(18.395 24.512)" fill="none" stroke="#3b7bf6" stroke-linecap="round" stroke-linejoin="round" stroke-miterlimit="10" stroke-width="3"/></g></g></g></svg>