<svg xmlns="http://www.w3.org/2000/svg" width="25.5" height="25.5" viewBox="0 0 25.5 25.5"><g transform="translate(-23.5 -307)"><path d="M-1900.512,312.8c-.754.388-1.488,1.388-1.488,3.218v13.739a5.19,5.19,0,0,0,5.431,5.462h13.866a3.938,3.938,0,0,0,3.129-1.46" transform="translate(1926 -3.215)" fill="none" stroke="#75b4f0" stroke-linecap="round" stroke-linejoin="round" stroke-width="1"/><g transform="translate(26 307)" fill="none" stroke="#75b4f0" stroke-linecap="round" stroke-linejoin="round" stroke-width="1"><rect width="23" height="23" rx="4" stroke="none"/><rect x="0.5" y="0.5" width="22" height="22" rx="3.5" fill="none"/></g><g transform="translate(41.214 313.818) rotate(90)" fill="none" stroke-linecap="round" stroke-linejoin="round"><path d="M4.5,0,9,6H0Z" stroke="none"/><path d="M 4.5 1.666666507720947 L 2 5 L 7 5 L 4.5 1.666666507720947 M 4.5 0 L 9 6 L 0 6 L 4.5 0 Z" stroke="none" fill="#75b4f0"/></g></g></svg>