<svg id="Сгруппировать_4012" data-name="Сгруппировать 4012" xmlns="http://www.w3.org/2000/svg" width="40" height="40" viewBox="0 0 40 40">
  <path id="Контур_1294" data-name="Контур 1294" d="M6,0H34a6,6,0,0,1,6,6V34a6,6,0,0,1-6,6H6a6,6,0,0,1-6-6V6A6,6,0,0,1,6,0Z" fill="none"/>
  <g id="_126474" data-name="126474" transform="translate(10 10)">
    <path id="Контур_2183" data-name="Контур 2183" d="M19.873,18.98l-4.86-4.86a8.534,8.534,0,1,0-.843.843l4.86,4.86a.6.6,0,0,0,.421.177.584.584,0,0,0,.421-.177A.6.6,0,0,0,19.873,18.98ZM1.243,8.528a7.33,7.33,0,1,1,7.33,7.335A7.338,7.338,0,0,1,1.243,8.528Z" transform="translate(-0.05)" fill="#9e9e9e"/>
  </g>
</svg>
