<svg xmlns="http://www.w3.org/2000/svg" width="20.37" height="25" viewBox="0 0 20.37 25"><g transform="translate(-5)"><path d="M22.593,9.312v-2.6c0-3.7-3.323-6.713-7.407-6.713S7.778,3.012,7.778,6.713v2.6A3.35,3.35,0,0,0,5,12.606v9.047A3.351,3.351,0,0,0,8.347,25H22.024a3.351,3.351,0,0,0,3.347-3.347V12.606A3.35,3.35,0,0,0,22.593,9.312ZM8.7,6.713C8.7,3.522,11.611.926,15.185.926s6.481,2.6,6.481,5.787V9.259H8.7Zm15.741,14.94a2.424,2.424,0,0,1-2.421,2.421H8.347a2.424,2.424,0,0,1-2.421-2.421V12.606a2.424,2.424,0,0,1,2.421-2.421H22.024a2.424,2.424,0,0,1,2.421,2.421Z" fill="#64b5f6"/><path d="M24.875,28A1.877,1.877,0,0,0,23,29.875v2.813a1.875,1.875,0,1,0,3.75,0V29.875A1.877,1.877,0,0,0,24.875,28Zm.938,4.688a.938.938,0,0,1-1.875,0V29.875a.938.938,0,0,1,1.875,0Z" transform="translate(-9.69 -15.094)" fill="#64b5f6"/></g></svg>