<svg id="Компонент_27_11" data-name="Компонент 27 – 11" xmlns="http://www.w3.org/2000/svg" width="40" height="40" viewBox="0 0 40 40">
  <path id="Контур_1294" data-name="Контур 1294" d="M6,0H34a6,6,0,0,1,6,6V34a6,6,0,0,1-6,6H6a6,6,0,0,1-6-6V6A6,6,0,0,1,6,0Z" fill="none"/>
  <g id="_126483" data-name="126483" transform="translate(10.428 10.118)">
    <path id="Контур_2182" data-name="Контур 2182" d="M18.7,1.322a4.411,4.411,0,0,0-6.243,0L1.016,12.764a.573.573,0,0,0-.162.328L.006,19.374a.571.571,0,0,0,.162.482.582.582,0,0,0,.4.17.463.463,0,0,0,.077,0l3.784-.511a.576.576,0,1,0-.153-1.142l-3.034.409L1.838,14.4l4.611,4.611a.582.582,0,0,0,.4.17.564.564,0,0,0,.4-.17L18.7,7.565a4.408,4.408,0,0,0,0-6.243ZM12.684,2.729l1.922,1.922L4.161,15.1,2.239,13.173ZM6.858,17.788,4.979,15.909,15.424,5.464,17.3,7.344ZM18.1,6.521l-4.6-4.6a3.266,3.266,0,0,1,4.6,4.6Z" transform="translate(0 -0.028)" fill="#2979ff"/>
  </g>
</svg>
